# xmcd
#
# Track frame offsets:
#	150
#	18340
#	36330
#	50020
#	66823
#	79300
#	92052
#	110243
#	128234
#	141925
#	158727
#	171203
#
# Disc length: 2452 seconds
#
# Revision: 1
# Processed by: cddbd v1.5.2PL0 Copyright (c) Steve Scherf et al.
# Submitted via: audiograbber 1.83.01
#
DISCID=a909920c
DTITLE=Various Artist - CB20065
DYEAR=1900
DGENRE=KARAOKE
TTITLE0=GARTH BROOKS (WVOCAL) - TEARIN' IT UP AND BURNIN' IT DOWN
TTITLE1=GARTH BROOKS and TRISHA YEARWOOD (WVOCAL) - WILD AS THE WIND
TTITLE2=BILLY DEAN (WVOCAL) - INNOCENT BYSTANDER
TTITLE3=MARY CHAPIN CARPENTER (WVOCAL) - IT'S ONLY LOVE
TTITLE4=MONTY HOLMES (WVOCAL) - LEAVE MY MAMA OUT OF THIS
TTITLE5=JONI HARMS (WVOCAL) - TWO STEPPIN' TEXAS BLUE
TTITLE6=GARTH BROOKS - TEARIN' IT UP AND BURNIN' IT DOWN
TTITLE7=GARTH BROOKS and TRISHA YEARWOOD - WILD AS THE WIND
TTITLE8=BILLY DEAN - INNOCENT BYSTANDER
TTITLE9=MARY CHAPIN CARPENTER - IT'S ONLY LOVE
TTITLE10=MONTY HOLMES - LEAVE MY MAMA OUT OF THIS
TTITLE11=JONI HARMS - TWO STEPPIN' TEXAS BLUE
EXTD=
EXTT0=
EXTT1=
EXTT2=
EXTT3=
EXTT4=
EXTT5=
EXTT6=
EXTT7=
EXTT8=
EXTT9=
EXTT10=
EXTT11=
PLAYORDER=
